<?xml version="1.0" encoding="UTF-8" standalone="no"?>
<!-- Created with Inkscape (http://www.inkscape.org/) -->

<svg
   xmlns:dc="http://purl.org/dc/elements/1.1/"
   xmlns:cc="http://creativecommons.org/ns#"
   xmlns:rdf="http://www.w3.org/1999/02/22-rdf-syntax-ns#"
   xmlns:svg="http://www.w3.org/2000/svg"
   xmlns="http://www.w3.org/2000/svg"
   xmlns:sodipodi="http://sodipodi.sourceforge.net/DTD/sodipodi-0.dtd"
   xmlns:inkscape="http://www.inkscape.org/namespaces/inkscape"
   width="79.064941mm"
   height="79.952744mm"
   viewBox="0 0 79.064943 79.952739"
   version="1.1"
   id="svg8"
   inkscape:version="0.92.4 (unknown)"
   sodipodi:docname="bank1.svg">
  <defs
     id="defs2">
    <style
       id="style1765">.cls-1{fill:#2f9a41;}</style>
  </defs>
  <sodipodi:namedview
     id="base"
     pagecolor="#ffffff"
     bordercolor="#666666"
     borderopacity="1.0"
     inkscape:pageopacity="0.0"
     inkscape:pageshadow="2"
     inkscape:zoom="0.7"
     inkscape:cx="71.447225"
     inkscape:cy="58.388331"
     inkscape:document-units="mm"
     inkscape:current-layer="layer1"
     showgrid="false"
     inkscape:snap-page="true"
     inkscape:snap-nodes="true"
     inkscape:object-paths="true"
     inkscape:window-width="1366"
     inkscape:window-height="744"
     inkscape:window-x="0"
     inkscape:window-y="0"
     inkscape:window-maximized="1" />
  <metadata
     id="metadata5">
    <rdf:RDF>
      <cc:Work
         rdf:about="">
        <dc:format>image/svg+xml</dc:format>
        <dc:type
           rdf:resource="http://purl.org/dc/dcmitype/StillImage" />
        <dc:title></dc:title>
      </cc:Work>
    </rdf:RDF>
  </metadata>
  <g
     inkscape:label="Layer 1"
     inkscape:groupmode="layer"
     id="layer1"
     transform="translate(-138.49144,237.21661)">
    <path
       style="fill:#ffffff;fill-opacity:1;fill-rule:evenodd;stroke:none;stroke-width:0.26458332"
       d="m 138.49144,-237.21661 v 79.95274 h 79.06494 v -79.95274 z m 44.96677,15.51326 h 20.25871 v 20.28404 h -20.25871 z m 17.93172,29.79147 h 2.45101 v 12.92996 h -2.45101 z m -27.49445,0.42995 c 5.3475,0.014 5.193,5.69857 2.09238,6.03735 3.37069,0.52986 3.24012,5.5217 0,6.68487 h -6.32519 v -12.64574 z m -20.21737,0.047 c 1.22843,-0.0365 2.40407,0.26042 3.4923,0.75448 v 1.9792 c -9.59624,-4.06825 -8.40504,10.92686 -1.98231,7.82072 v -3.44631 h -1.95234 v -1.72599 h 4.41834 v 6.54327 c -0.43134,0.95569 -4.91688,1.47228 -7.05332,0.37724 -3.73243,-1.62582 -3.60401,-9.88015 0.13126,-11.54813 1.00296,-0.49591 1.99063,-0.72607 2.94607,-0.75448 z m 14.4353,0.19844 v 1.99058 h -3.25303 v 10.5885 h -2.39882 v -10.51409 h -3.49798 v -1.99058 z m 3.92637,1.75493 v 3.25768 h 2.22106 c 1.29795,-0.0815 1.98627,-2.9028 0.0791,-3.25768 h -2.2996 z m 12.77235,0.72864 c 1.75136,0.0384 3.14314,0.73956 3.46077,2.17041 v 7.63002 h -2.23139 v -1.02319 c -1.96965,2.1272 -6.61783,1.7129 -6.0048,-2.63033 0.368,-2.00722 2.56848,-2.58803 5.79758,-2.36833 0.33759,-2.79568 -3.32554,-1.48177 -5.0214,-1.00304 v -1.88722 c 1.2174,-0.5539 2.49471,-0.85548 3.64422,-0.88729 0.11974,-0.003 0.23826,-0.004 0.35502,-0.001 z m 11.68921,0.0227 c 1.58087,0.0212 2.70561,0.92189 3.0272,2.6882 v 7.12825 h -2.48718 v -6.72 c -0.4613,-1.81375 -3.56044,-0.62987 -4.14187,0 l -0.0341,6.75411 h -2.48616 v -9.7746 h 2.34766 v 1.12034 c 1.39781,-0.81355 2.6928,-1.21078 3.77445,-1.1963 z m 10.82569,0.008 2.83032,0.10181 -3.41736,4.41161 3.79667,5.15886 -3.00292,0.0677 -3.45147,-5.36247 z m -35.28725,4.28036 v 3.65508 h 2.22106 c 2.47378,0.0115 1.98627,-3.56458 0.0791,-3.65508 h -2.2996 z m 12.21063,0.93948 c -0.67043,0.0148 -1.2793,0.16813 -1.55236,0.524 -1.41758,2.38237 1.43899,3.24806 3.18895,1.34979 v -1.66192 c -0.40019,-0.11658 -0.87825,-0.19373 -1.34617,-0.2098 -0.0975,-0.003 -0.19465,-0.004 -0.29042,-0.002 z"
       id="path3345"
       inkscape:connector-curvature="0" />
  </g>
</svg>
