<?xml version="1.0" encoding="UTF-8" standalone="no"?>
<!-- Created with Inkscape (http://www.inkscape.org/) -->

<svg
   xmlns:dc="http://purl.org/dc/elements/1.1/"
   xmlns:cc="http://creativecommons.org/ns#"
   xmlns:rdf="http://www.w3.org/1999/02/22-rdf-syntax-ns#"
   xmlns:svg="http://www.w3.org/2000/svg"
   xmlns="http://www.w3.org/2000/svg"
   xmlns:sodipodi="http://sodipodi.sourceforge.net/DTD/sodipodi-0.dtd"
   xmlns:inkscape="http://www.inkscape.org/namespaces/inkscape"
   width="68.804604mm"
   height="68.785843mm"
   version="1.1"
   viewBox="0 0 68.804604 68.785842"
   id="svg32"
   sodipodi:docname="ig.svg"
   inkscape:version="0.92.4 (unknown)">
  <sodipodi:namedview
     pagecolor="#ffffff"
     bordercolor="#666666"
     borderopacity="1"
     objecttolerance="10"
     gridtolerance="10"
     guidetolerance="10"
     inkscape:pageopacity="0"
     inkscape:pageshadow="2"
     inkscape:window-width="1366"
     inkscape:window-height="744"
     id="namedview34"
     showgrid="false"
     inkscape:zoom="1.8155383"
     inkscape:cx="110.13132"
     inkscape:cy="128.87627"
     inkscape:window-x="0"
     inkscape:window-y="0"
     inkscape:window-maximized="1"
     inkscape:current-layer="svg32" />
  <defs
     id="defs18">
    <radialGradient
       id="c-3"
       cx="158.429"
       cy="578.08801"
       r="65"
       gradientTransform="matrix(0,-1.98198,1.8439,0,-966.38631,518.99849)"
       gradientUnits="userSpaceOnUse">
      <stop
         stop-color="#fd5"
         offset="0"
         id="stop2" />
      <stop
         stop-color="#fd5"
         offset=".1"
         id="stop4" />
      <stop
         stop-color="#ff543e"
         offset=".5"
         id="stop6" />
      <stop
         stop-color="#c837ab"
         offset="1"
         id="stop8" />
    </radialGradient>
    <radialGradient
       id="d-5"
       cx="147.694"
       cy="473.45499"
       r="65"
       gradientTransform="matrix(0.04602162,0.22984883,-0.94768457,0.18975387,401.44662,-112.4199)"
       gradientUnits="userSpaceOnUse">
      <stop
         stop-color="#3771c8"
         offset="0"
         id="stop11" />
      <stop
         stop-color="#3771c8"
         offset=".128"
         id="stop13" />
      <stop
         stop-color="#60f"
         stop-opacity="0"
         offset="1"
         id="stop15" />
    </radialGradient>
  </defs>
  <metadata
     id="metadata20">
    <rdf:RDF>
      <cc:Work
         rdf:about="">
        <dc:format>image/svg+xml</dc:format>
        <dc:type
           rdf:resource="http://purl.org/dc/dcmitype/StillImage" />
        <dc:title />
      </cc:Work>
    </rdf:RDF>
  </metadata>
  <path
     style="fill:#7986cb;stroke-width:0.99999994;fill-opacity:1"
     d="M 130.04492 64.994141 C 102.90292 64.994141 94.964875 65.022378 93.421875 65.150391 C 87.851876 65.61339 84.387329 66.491096 80.611328 68.371094 C 77.70133 69.816094 75.405624 71.489889 73.140625 73.837891 C 69.015622 78.119891 66.516328 83.38839 65.611328 89.650391 C 65.171327 92.690389 65.043577 93.309891 65.017578 108.83789 C 65.007751 114.01389 65.017578 120.82589 65.017578 129.96289 C 65.017578 157.08289 65.045652 165.01274 65.175781 166.55273 C 65.625779 171.97274 66.477344 175.38328 68.277344 179.11328 C 71.717345 186.25328 78.287344 191.61328 86.027344 193.61328 C 88.707346 194.30328 91.666796 194.68328 95.466797 194.86328 C 97.076796 194.93328 113.48625 194.98438 129.90625 194.98438 C 146.32625 194.98438 162.74641 194.96279 164.31641 194.88281 C 168.71641 194.67581 171.2707 194.33352 174.0957 193.60352 C 181.8857 191.59352 188.3357 186.31422 191.8457 179.07422 C 193.6107 175.43422 194.50711 171.89286 194.91211 166.75586 C 195.0001 165.63586 195.03711 147.78027 195.03711 129.94727 C 195.03711 112.11127 194.99623 94.286014 194.9082 93.166016 C 194.4982 87.946016 193.60325 84.436562 191.78125 80.726562 C 190.28625 77.689561 188.6268 75.42056 186.2168 73.101562 C 181.9158 68.99356 176.65472 66.493842 170.38672 65.589844 C 167.34972 65.150844 166.74508 65.021142 151.20508 64.994141 L 130.04492 64.994141 z M 130 81.994141 L 130.01562 81.994141 C 143.03386 81.99421 144.67413 82.05229 149.79102 82.285156 C 154.90102 82.519158 158.39117 83.326673 161.45117 84.513672 C 164.61117 85.738673 167.28117 87.378826 169.95117 90.048828 C 172.62117 92.716827 174.26024 95.395733 175.49023 98.552734 C 176.67023 101.60473 177.4807 105.09312 177.7207 110.20312 C 177.95069 115.32312 178.00977 116.95814 178.00977 129.99414 C 178.00977 143.03014 177.95069 144.6632 177.7207 149.7832 C 177.4807 154.8912 176.67023 158.37864 175.49023 161.43164 C 174.26024 164.58764 172.62117 167.26559 169.95117 169.93359 C 167.28417 172.60359 164.60913 174.24861 161.45312 175.47461 C 158.39912 176.66161 154.90687 177.47109 149.79688 177.70508 C 144.67687 177.93809 143.04676 177.99414 130.00977 177.99414 C 116.97476 177.99414 115.33875 177.93809 110.21875 177.70508 C 105.10975 177.47108 101.62236 176.66161 98.568359 175.47461 C 95.413357 174.24861 92.73536 172.60359 90.068359 169.93359 C 87.399359 167.26559 85.758251 164.58864 84.53125 161.43164 C 83.345249 158.37964 82.535792 154.89125 82.300781 149.78125 C 82.068794 144.66125 82.011719 143.03014 82.011719 129.99414 C 82.011719 116.95814 82.07178 115.32117 82.300781 110.20117 C 82.530781 105.09317 83.341251 101.60378 84.53125 98.550781 C 85.761252 95.394781 87.400314 92.716827 90.070312 90.048828 C 92.738311 87.379828 95.417217 85.739671 98.574219 84.513672 C 101.62622 83.326673 105.11461 82.519147 110.22461 82.285156 C 115.3415 82.05229 116.98575 81.99421 130 81.994141 z M 125.70898 90.632812 C 116.76299 90.642828 115.04714 90.702331 110.61914 90.902344 C 105.93914 91.117346 103.39903 91.896641 101.70703 92.556641 C 99.46703 93.428638 97.8675 94.470391 96.1875 96.150391 C 94.5075 97.830391 93.463752 99.429921 92.59375 101.66992 C 91.936751 103.36192 91.155403 105.90203 90.941406 110.58203 C 90.711384 115.64203 90.666016 117.1527 90.666016 129.9707 C 90.666016 142.7887 90.711422 144.30914 90.941406 149.36914 C 91.154405 154.04914 91.936751 156.5893 92.59375 158.2793 C 93.465751 160.5203 94.5075 162.11687 96.1875 163.79688 C 97.8675 165.47687 99.46703 166.51672 101.70703 167.38672 C 103.40003 168.04372 105.93914 168.82502 110.61914 169.04102 C 115.67914 169.271 117.19863 169.32227 130.01562 169.32227 C 142.83163 169.32227 144.35211 169.271 149.41211 169.04102 C 154.09211 168.82701 156.63422 168.04672 158.32422 167.38672 C 160.56522 166.51672 162.15984 165.47688 163.83984 163.79688 C 165.51984 162.11788 166.56164 160.5232 167.43164 158.2832 C 168.08864 156.5932 168.86999 154.05305 169.08398 149.37305 C 169.31397 144.31305 169.36523 142.79438 169.36523 129.98438 C 169.36523 117.17438 169.31397 115.65375 169.08398 110.59375 C 168.87099 105.91375 168.08864 103.37359 167.43164 101.68359 C 166.55964 99.443592 165.51984 97.844063 163.83984 96.164062 C 162.16084 94.484062 160.56422 93.444217 158.32422 92.574219 C 156.63222 91.91722 154.09211 91.133919 149.41211 90.919922 C 144.35111 90.6899 142.83163 90.644531 130.01562 90.644531 C 128.41363 90.644531 126.98699 90.642532 125.70898 90.644531 L 125.70898 90.632812 z M 155.63672 98.613281 C 158.81672 98.613281 161.39844 101.19305 161.39844 104.37305 C 161.39844 107.55305 158.81672 110.13281 155.63672 110.13281 C 152.45672 110.13281 149.87695 107.55305 149.87695 104.37305 C 149.87695 101.19205 152.45672 98.615234 155.63672 98.615234 L 155.63672 98.613281 z M 130.01562 105.34375 C 143.62862 105.34375 154.66211 116.38114 154.66211 129.99414 C 154.66211 143.60714 143.62863 154.63867 130.01562 154.63867 C 116.40262 154.63867 105.36523 143.60714 105.36523 129.99414 C 105.36523 116.38114 116.40262 105.34375 130.01562 105.34375 z M 130.01562 113.99414 C 121.17862 113.99414 114.01562 121.15714 114.01562 129.99414 C 114.01563 138.83014 121.17862 145.99414 130.01562 145.99414 C 138.85162 145.99414 146.01562 138.83014 146.01562 129.99414 C 146.01563 121.15714 138.85162 113.99414 130.01562 113.99414 z "
     id="path22"
     transform="scale(0.26458333)" />
</svg>
