<?xml version="1.0" encoding="UTF-8" standalone="no"?>
<svg
   xmlns:dc="http://purl.org/dc/elements/1.1/"
   xmlns:cc="http://creativecommons.org/ns#"
   xmlns:rdf="http://www.w3.org/1999/02/22-rdf-syntax-ns#"
   xmlns:svg="http://www.w3.org/2000/svg"
   xmlns="http://www.w3.org/2000/svg"
   id="svg8"
   version="1.1"
   viewBox="0 0 42.333333 42.33333"
   height="42.333332mm"
   width="42.333332mm">
  <defs
     id="defs2">
    <style
       id="style1765">.cls-1{fill:#2f9a41;}</style>
  </defs>
  <metadata
     id="metadata5">
    <rdf:RDF>
      <cc:Work
         rdf:about="">
        <dc:format>image/svg+xml</dc:format>
        <dc:type
           rdf:resource="http://purl.org/dc/dcmitype/StillImage" />
        <dc:title></dc:title>
      </cc:Work>
    </rdf:RDF>
  </metadata>
  <g
     transform="translate(-47.399326,189.76989)"
     id="layer1">
    <path
       id="path2900"
       transform="matrix(0.26458333,0,0,0.26458333,138.49144,-237.21661)"
       d="m -344.28516,179.32617 v 160 h 160 v -160 z m 108.47657,56.60742 c 2.29169,0 4.29101,1.76529 4.29101,4.17383 0,2.46886 -1.99932,4.17383 -4.29101,4.17383 -2.35013,0 -4.34961,-1.70497 -4.34961,-4.17383 0,-2.40854 1.99949,-4.17383 4.34961,-4.17383 z m -51.33789,0.002 c 2.2917,0 4.29101,1.76144 4.29101,4.17187 0,2.46883 -1.99931,4.17383 -4.29101,4.17383 -2.352,0 -4.35157,-1.705 -4.35157,-4.17383 0,-2.41043 1.99957,-4.17187 4.35157,-4.17187 z m -36.85938,1.9375 h 7.52539 v 15.52148 l 13.16602,-15.52148 h 9.05468 l -14.99218,17.2832 15.52148,18.8125 h -9.23047 L -316.48047,257.625 v 16.34375 h -7.52539 z m 33.21289,9.81836 h 7.29102 v 26.27734 h -7.29102 z m 10.34766,0 h 7.28711 l 4.70508,16.7539 4.28906,-16.7539 h 5.58594 l 4.3496,16.7539 4.70118,-16.7539 h 7.05468 l -7.99414,26.27734 h -6.69922 l -4.29296,-16.10937 -4.29297,16.10937 h -6.69922 z m 40.99219,0 h 7.28906 v 26.27734 h -7.28906 z m -84.55079,32.34961 h 7.34766 v 14.10937 c 1.176,-1.41158 3.76077,-2.76367 6.58203,-2.76367 7.64211,0 11.9336,6.23055 11.9336,13.75586 0,7.52523 -4.29149,13.69726 -11.9336,13.69726 -2.82126,0 -5.40603,-1.35203 -6.58203,-2.76172 v 2.17383 h -7.34766 z m 84.54883,0 h 7.29102 v 22.33789 l 8.99414,-10.4043 h 8.75586 l -10.9336,12.05273 11.17188,14.22657 h -8.52344 l -9.46484,-12.11133 v 12.11133 h -7.29102 z m -44.20312,11.3457 c 7.22937,0 11.28711,3.70363 11.28711,10.11133 v 16.7539 h -6.99805 v -1.41211 c -0.88013,0.88199 -3.46797,1.88086 -6.34766,1.88086 -5.29011,0 -9.69922,-3.05616 -9.69922,-8.52343 0,-4.99612 4.40859,-8.4043 10.16797,-8.4043 2.29358,0 4.82163,0.7641 5.87891,1.52734 v -1.4707 c 0,-2.52726 -2.17564,-4.11523 -5.87891,-4.11523 -2.64412,-10e-6 -5.11192,0.76593 -7.16992,2.11718 v -6.28906 c 1.88085,-1.176 5.29019,-2.17578 8.75977,-2.17578 z m 30.35351,0 c 5.93654,0 9.28711,3.88139 9.28711,9.69922 v 17.16601 h -7.28711 v -15.63867 c 0,-2.76283 -1.41328,-4.64258 -4.29297,-4.64258 -2.23326,0 -4.17365,1.35286 -4.75976,3.64453 v 16.63672 h -7.28906 v -26.27734 h 7.28906 v 2.41211 c 1.40969,-1.64716 3.99777,-3 7.05273,-3 z m -58.41406,6.34766 c -2.11643,-10e-6 -4.1158,1.29454 -4.9375,3.05664 v 8.64257 c 0.8217,1.82242 2.76265,3.05664 4.9375,3.05664 3.93883,0 6.29102,-3.17324 6.29102,-7.34765 0,-4.23285 -2.35219,-7.4082 -6.29102,-7.4082 z m 27.70508,9.16992 c -2.29169,0 -4.64258,1.00112 -4.64258,3.23437 0,2.29357 2.35089,3.23438 4.64258,3.23438 2.058,0 3.99999,-0.88139 4.64453,-2.29297 v -1.88086 c -0.64454,-1.41158 -2.58653,-2.29492 -4.64453,-2.29492 z m 75.71484,2.41211 c 2.58757,0 4.58399,1.99852 4.58399,4.64453 0,2.64601 -1.99642,4.70312 -4.58399,4.70312 -2.58569,0 -4.58594,-2.05711 -4.58594,-4.70312 0,-2.64601 2.00025,-4.64453 4.58594,-4.64453 z"
       style="fill:#ffffff;stroke:none;stroke-width:0.99999994;stroke-opacity:1" />
  </g>
</svg>
