<?xml version="1.0" encoding="UTF-8" standalone="no"?>
<!-- Created with Inkscape (http://www.inkscape.org/) -->

<svg
   xmlns:dc="http://purl.org/dc/elements/1.1/"
   xmlns:cc="http://creativecommons.org/ns#"
   xmlns:rdf="http://www.w3.org/1999/02/22-rdf-syntax-ns#"
   xmlns:svg="http://www.w3.org/2000/svg"
   xmlns="http://www.w3.org/2000/svg"
   xmlns:sodipodi="http://sodipodi.sourceforge.net/DTD/sodipodi-0.dtd"
   xmlns:inkscape="http://www.inkscape.org/namespaces/inkscape"
   width="57.2407mm"
   height="95.401161mm"
   viewBox="0 0 57.2407 95.401161"
   version="1.1"
   id="svg8"
   inkscape:version="0.92.4 (unknown)"
   sodipodi:docname="phone.svg">
  <defs
     id="defs2" />
  <sodipodi:namedview
     id="base"
     pagecolor="#ffffff"
     bordercolor="#666666"
     borderopacity="1.0"
     inkscape:pageopacity="0.0"
     inkscape:pageshadow="2"
     inkscape:zoom="0.98994949"
     inkscape:cx="-47.458479"
     inkscape:cy="160.9224"
     inkscape:document-units="mm"
     inkscape:current-layer="layer1"
     showgrid="false"
     inkscape:window-width="1366"
     inkscape:window-height="744"
     inkscape:window-x="0"
     inkscape:window-y="0"
     inkscape:window-maximized="1" />
  <metadata
     id="metadata5">
    <rdf:RDF>
      <cc:Work
         rdf:about="">
        <dc:format>image/svg+xml</dc:format>
        <dc:type
           rdf:resource="http://purl.org/dc/dcmitype/StillImage" />
        <dc:title></dc:title>
      </cc:Work>
    </rdf:RDF>
  </metadata>
  <g
     inkscape:label="Layer 1"
     inkscape:groupmode="layer"
     id="layer1"
     transform="translate(230.08166,-211.37581)">
    <g
       transform="matrix(0.03466748,0,0,0.03466748,-214.63495,241.80933)"
       id="layer1-3"
       inkscape:label="Capa 1"
       style="fill:#7986cb;fill-opacity:1">
      <g
         id="g3003"
         transform="matrix(1,0,0,-1,-4,1138.0765)"
         style="fill:#7986cb;fill-opacity:1">
        <path
           style="fill:#7986cb;fill-opacity:1"
           inkscape:connector-curvature="0"
           id="path3005"
           d="m 464,128 q 0,33 -23.5,56.5 Q 417,208 384,208 351,208 327.5,184.5 304,161 304,128 304,95 327.5,71.5 351,48 384,48 417,48 440.5,71.5 464,95 464,128 Z m 208,160 v 704 q 0,13 -9.5,22.5 -9.5,9.5 -22.5,9.5 H 128 q -13,0 -22.5,-9.5 Q 96,1005 96,992 V 288 q 0,-13 9.5,-22.5 Q 115,256 128,256 h 512 q 13,0 22.5,9.5 9.5,9.5 9.5,22.5 z m -192,848 q 0,16 -16,16 H 304 q -16,0 -16,-16 0,-16 16,-16 h 160 q 16,0 16,16 z m 288,16 V 128 Q 768,76 730,38 692,0 640,0 H 128 Q 76,0 38,38 0,76 0,128 v 1024 q 0,52 38,90 38,38 90,38 h 512 q 52,0 90,-38 38,-38 38,-90 z" />
      </g>
    </g>
  </g>
</svg>
