<?xml version="1.0" encoding="UTF-8" standalone="no"?>
<svg
   xmlns:dc="http://purl.org/dc/elements/1.1/"
   xmlns:cc="http://creativecommons.org/ns#"
   xmlns:rdf="http://www.w3.org/1999/02/22-rdf-syntax-ns#"
   xmlns:svg="http://www.w3.org/2000/svg"
   xmlns="http://www.w3.org/2000/svg"
   id="svg8"
   version="1.1"
   viewBox="0 0 118.2952 118.26876"
   height="118.26877mm"
   width="118.2952mm">
  <defs
     id="defs2">
    <style
       id="style1765">.cls-1{fill:#2f9a41;}</style>
  </defs>
  <metadata
     id="metadata5">
    <rdf:RDF>
      <cc:Work
         rdf:about="">
        <dc:format>image/svg+xml</dc:format>
        <dc:type
           rdf:resource="http://purl.org/dc/dcmitype/StillImage" />
        <dc:title></dc:title>
      </cc:Work>
    </rdf:RDF>
  </metadata>
  <g
     transform="translate(-314.58827,183.04804)"
     id="layer1">
    <g
       style="fill:#ffffff"
       transform="matrix(0.26458333,0,0,0.26458333,314.58827,-183.04804)"
       id="g1987">
	<path
   style="fill:#ffffff;fill-rule:evenodd"
   d="m 123.8,119.9 c 17.1,2.2 29.7,1.5 63.4,-10.6 33.6,-12.1 56.6,44.9 80.8,40.5 -16.8,11.8 -26.3,-11.9 -43.5,-25.3 -10.6,-8.3 -23.3,-12.8 -34.9,-8.9 -11.9,4 -55.2,19.6 -65.8,4.3 z"
   id="path1939" />

	<path
   style="fill:#ffffff;fill-rule:evenodd"
   d="m 128.4,129.1 c 1.3,3.2 11.9,9.5 17.8,8.2 7.4,15.7 42.1,14.3 57.1,6.6 9.1,-4.7 28.9,-1.7 36,6.3 -2.2,-9.6 -21.8,-14.3 -32,-12.1 -12.6,2.8 -37.9,11.3 -49.5,0.4 6.9,-2.8 45.4,-20 61.6,-7 -13.3,-19.8 -44.5,-3.7 -53.1,-2.1 -8.7,1.5 -26.8,4.4 -37.9,-0.3 z"
   id="path1941" />

	<path
   style="fill:#ffffff;fill-rule:evenodd"
   d="m 241.9,159.1 c 0,0 -9.8,-13.9 -26.3,-10.5 -16.5,3.4 -21.6,7.2 -28.4,8 -6.8,0.9 -21,-5.5 -20.4,-6.7 4.3,6.8 9.3,11.4 15.4,12.6 -3.7,9.1 -3.6,18.2 0.2,27.4 -0.6,-6.8 2.4,-24.8 7,-27.6 9.4,-5.3 41.2,-14.7 52.5,-3.2 z"
   id="path1943" />

	<path
   style="fill:#ffffff;fill-rule:evenodd"
   d="m 175.4,213.8 c 8.7,-21.2 28.8,-22.3 52.3,-26.3 23.5,-4 22.5,-18.5 40.3,-18.9 -12,5.4 -23.8,22.7 -40.2,23.8 -11.1,0.6 -40.6,4.7 -52.4,21.4 z"
   id="path1945" />

	<path
   style="fill:#ffffff;fill-rule:evenodd"
   d="m 172.4,301.2 c 13.9,16.8 49.9,1.7 61.6,20.1 1.5,-1.1 2.9,-2.3 4.4,-3.4 -12.9,-19.1 -48.7,-5 -66,-16.7 z"
   id="path1947" />

	<path
   style="fill:#ffffff;fill-rule:evenodd"
   d="m 291.6,232.5 c 0,2 1.2,3.3 3.5,3.9 0.5,-2.3 0.3,-3 -0.2,-4.7 -0.4,0.7 -0.3,1.5 -0.8,2.2 -0.9,-0.1 -1.1,-0.3 -2.5,-1.4 z"
   id="path1949" />

	<path
   style="fill:#ffffff;fill-rule:evenodd"
   d="m 289.2,218.2 c -2,-4.5 -9.1,-4.6 -13.2,-7.8 6.6,-0.6 12.8,-2.3 16.3,-7.6 -6.6,-3.9 -12.6,-3.1 -19.7,1 0.1,-0.9 0.2,-1.8 0.3,-2.8 -0.7,-0.1 -1.3,-0.2 -2,-0.3 9,-5 17.3,-6.4 27.7,-0.4 -2.9,4.6 -4.8,4.5 -6.3,7.7 -1.3,2.6 -1,6.8 -3.1,10.2 z"
   id="path1951" />

	<path
   style="fill:#ffffff;fill-rule:evenodd"
   d="m 300.9,196.8 c 2.5,-3.5 -7.4,-9.7 -15.9,-5.5 12.7,-2 13.5,9 15.9,5.5 z"
   id="path1953" />

	<path
   style="fill:#ffffff;fill-rule:evenodd"
   d="m 300.6,178.5 c 12.8,-2.1 8,-20.3 -12.7,-17 -20.7,3.3 -35.5,29.8 -57.7,33.2 -11.1,1.7 -19.2,2.8 -27.9,5.8 -18.9,6.6 -31.9,17.9 -24.5,32.5 -5.8,4.3 -8.1,9.7 -3.6,15.4 -1.7,-13.4 17.5,-18.7 29,-21.6 1,-0.3 2,-0.6 3,-1 2.6,8.6 -25.5,4.2 -26,19.4 6.5,-12.7 36.6,-3.3 32.9,-23.7 7.3,-6.3 11,-16.1 11.3,-21.8 15.7,-3.9 26.8,-6.6 32.7,-12.8 21.2,-22 48.4,-26.9 43.5,-8.4 z M 193.9,209 c 2.5,6.3 -3.9,9.6 -11.5,13.3 9.3,1.7 33.9,0.4 32.6,-20 1.1,-0.3 2.3,-0.6 3.4,-0.9 0.2,6.4 -5.5,20.8 -21.4,24 -5.8,1.2 -11.4,3.1 -15.8,5.6 -1.8,-5.3 -1.6,-15 12.7,-22 z m -1.2,11.2 c 5.3,-2.4 9.2,-7 8.8,-14.3 0.7,-0.2 1.5,-0.5 2.2,-0.7 1.1,-0.3 2.1,-0.6 3.2,-0.9 4.6,8.9 -5.2,13.6 -14.2,15.9 z"
   id="path1955" />

	<path
   style="fill:#ffffff;fill-rule:evenodd"
   d="m 295.5,177.6 c 5.8,-9.8 -12,-8.6 -19.6,1 5.6,-1.9 14.7,-6.5 19.6,-1 z"
   id="path1957" />

	<path
   style="fill:#ffffff;fill-rule:evenodd"
   d="M 223.5,0 C 347,0 447.1,100.1 447.1,223.5 447.1,346.9 347,447 223.6,447 100.1,447.1 0,347 0,223.5 0,100.1 100.1,0 223.5,0 Z m 0,3.7 C 102.2,3.7 3.7,102.2 3.7,223.5 c 0,121.4 98.4,219.8 219.8,219.8 121.4,0 219.8,-98.4 219.8,-219.8 C 443.4,102.2 344.9,3.7 223.5,3.7 Z"
   id="path1959" />

	<path
   style="fill:#ffffff;fill-rule:evenodd"
   d="m 223.5,18.6 c 113.2,0 204.9,91.8 204.9,204.9 0,113.2 -91.8,204.9 -204.9,204.9 C 110.4,428.4 18.6,336.6 18.6,223.5 18.6,110.4 110.4,18.6 223.5,18.6 Z m 0,3.8 c -111.1,0 -201.2,90.1 -201.2,201.2 0,111.1 90.1,201.2 201.2,201.2 111.1,0 201.2,-90.1 201.2,-201.2 0,-111.2 -90.1,-201.2 -201.2,-201.2 z"
   id="path1961" />

	<path
   style="fill:#ffffff;fill-rule:evenodd"
   d="M 223.5,67.1 C 309.9,67.1 380,137.2 380,223.6 380,310 309.9,380.1 223.5,380.1 137.1,380.1 67,310 67,223.6 67.1,137.1 137.1,67.1 223.5,67.1 Z m 0,3.7 c -84.3,0 -152.8,68.4 -152.8,152.8 0,84.3 68.4,152.8 152.8,152.8 84.4,0 152.8,-68.4 152.8,-152.8 0,-84.4 -68.4,-152.8 -152.8,-152.8 z"
   id="path1963" />

	<path
   style="fill:#ffffff;fill-rule:evenodd"
   d="m 98.2,299.2 c 8.5,-4.5 22.3,-9 33.2,-6.9 12.5,2.5 37.9,-0.5 45,-9.3 7.1,-8.8 4.9,-15.5 12.9,-23.4 10.5,-10.2 31.4,-9.8 35.1,-16.3 3.8,-6.5 3.2,-9.9 0.8,-14.2 -1.2,3.2 -5,11.6 -10.4,12.8 -5.4,1.2 -14.6,2.9 -17.7,3.5 -5.7,1 -12.1,8.2 -13.8,15.2 -2.1,-9.4 4.2,-20 19.3,-20.7 15.1,-0.7 17.1,-18.9 18.4,-26.3 1.2,-7.4 11.1,-16.5 20.1,-10.3 14.1,-9.7 27.9,-26 46.9,-21.9 -14.7,2.3 -30.8,14 -42.7,27.7 0,0 -0.2,12.5 5.2,15.9 3.8,2.4 15.3,3.9 13.8,22.3 -3.2,-15.9 -12.5,-17.5 -15.4,-19.1 -6.3,-3.5 -8.4,-10.8 -9.5,-16.7 -1.4,-7.7 -14.1,-7.2 -12.5,4.8 1.6,12 4,17.4 11.8,18.7 -2,1.8 -3.3,2.2 -6.8,1.9 -0.1,4.2 -1.6,7.6 -4.9,10.4 6.4,23.6 60.2,31.5 60.4,24.4 0.3,-8.6 1.2,-9.8 0.9,-11.3 -3.1,-1.1 -4.2,-0.8 -6.5,-3.2 5.4,-0.1 8.3,-0.7 8.5,-2.8 0.4,-3.9 -10,0.2 -12,-5.6 2.2,0.7 11.6,0.7 12.7,-0.5 1.1,-1.2 1.8,-5.2 1.7,-6 -0.2,-0.8 -6.5,0.4 -8.3,-1.4 -1.8,-1.8 1.4,-6.7 3.6,-7.9 -0.5,2.8 -1.2,4.8 0.1,6.1 1.6,1.5 8.7,0 8.7,0 l 0.2,-1.8 c 0.9,2.2 3.9,2.3 6.6,1 1.9,-0.9 -4.2,-25 -6.5,-31.8 2.4,-2 7.7,-6.8 8.3,-8.7 0.6,-1.9 -3.7,-11.2 -3.5,-14.3 0.2,-3.1 6,-1.5 6,-1.5 0,0 8.9,-7.2 1.4,-18.1 8.5,3.2 9.9,8.8 9.7,12.8 5.5,-2.7 12.7,-6.7 11.8,-8.8 -7.2,-16.7 -58.5,-11.8 -92.1,-1.2 -20.9,6.6 -81.4,38.5 -77.1,59.2 1.2,5.8 12.1,6.4 12.1,6.4 0,0 -12.9,3.2 -15.3,-3.2 -8.1,-21.4 29.6,-46.8 78.3,-66.5 11.2,-4.5 38,-9.8 61.3,-10.3 -2.3,-10.2 -20.6,-34.2 -66.5,-30.9 24.8,-13 66.1,4.1 78.9,31.2 14.6,1.1 26.1,4.9 28.5,13.2 3.9,14 -32.5,24.4 -32.5,24.4 4.8,8.5 1.8,11.1 -5.7,18 2.6,6.6 6.5,26.3 6.5,30.4 -0.1,4.1 -11.2,3.7 -11.2,3.7 l -2.2,9.2 c 1.8,3.5 0,7 -2.7,8.1 0.4,2.9 -0.8,3.9 -0.5,11.9 0.3,6.9 -11,7.7 -24.2,5 -0.7,0.8 -1.4,1.5 -2,2.3 3.1,3.7 7.8,9.9 10.6,16.7 4.5,10.8 -10,20.2 2.8,39.3 5.4,8 6.6,15.5 6.1,22 -2.5,1.1 -5.1,2.2 -7.7,3.2 1.5,-7.6 2.2,-19.3 -3.2,-27 -8,-11.4 -2.2,-27.3 -1.2,-34.2 0.3,-1.8 -0.3,-3.8 -1.4,-6 -3.1,5.9 -12.5,24.5 -11.3,32 1.2,8.1 10.3,24.5 2.9,39.7 -5.2,1.4 -10.4,2.5 -15.8,3.4 5.7,-5.4 13.6,-14.4 13,-22.1 -1,-12 -7.4,-20.1 -2.3,-33.8 4,-10.7 9,-19.8 11.1,-23.2 -2.1,-3 -4.5,-5.6 -5.8,-7.1 -4.4,6.3 -6.3,12.6 -7.5,18.5 -1.3,22.3 -9.9,45 -30.6,69.5 -0.1,0 -0.2,0 -0.4,0 -4.8,0 -9.6,-0.2 -14.3,-0.7 18.3,-13.7 28.5,-26 35.9,-42.1 -11.4,14.5 -34.1,30.9 -52.1,39.6 -7.2,-1.5 -14.1,-3.6 -20.9,-6.1 55.1,-11.4 73.6,-39.1 79.3,-57 2.6,-8.2 3.4,-17.6 9.7,-28.1 v 0 0 0 c -12.9,-3.4 -26.4,-9.8 -32.3,-17 1,11.6 1.6,15.9 1.1,35 -1.3,-8.4 -5.5,-34.4 -7.5,-43.2 -3.9,2 -9,3.7 -15.5,5.1 -23.7,5.1 -15.3,22.3 -26.5,32.5 -11.1,10.2 -18.7,10.6 -24.6,10.2 6.8,3.5 12.9,7.3 17.2,13.3 -22.1,-12.8 -44.8,-18.8 -68.9,-3.1 -2.2,-2.7 -4.2,-5.7 -6.1,-8.9 z"
   id="path1965" />

	<path
   style="fill:#ffffff;fill-rule:evenodd"
   d="m 280.2,296.8 c 8,10.3 21.4,16.9 38.4,15.8 -2.4,2.7 -6.2,4.7 -7.8,11.6 9.3,-8.8 18.4,-15.7 30.8,-14.1 2,-2.8 4,-5.6 5.8,-8.5 -15.9,0.5 -33.8,14.5 -67.2,-4.8 z"
   id="path1967" />

	<path
   style="fill:#ffffff;fill-rule:evenodd"
   d="m 223.5,74.5 c 82.3,0 149,66.7 149,149 0,82.3 -66.7,149 -149,149 -82.3,0 -149,-66.7 -149,-149 0,-82.3 66.7,-149 149,-149 z m 0,3.7 c -80.2,0 -145.3,65.1 -145.3,145.3 0,80.2 65.1,145.3 145.3,145.3 80.2,0 145.3,-65.1 145.3,-145.3 0,-80.2 -65,-145.3 -145.3,-145.3 z"
   id="path1969" />

	<path
   style="fill:#ffffff;fill-rule:evenodd"
   d="m 393.6,303.3 c -19.4,41.2 -53.2,74.2 -95,92.4 l -1.8,-4.1 c 40.8,-17.8 73.9,-50 92.8,-90.2 z"
   id="path1971" />

	<path
   style="fill:#ffffff;fill-rule:evenodd"
   d="m 53.5,302.9 c 19.4,41.2 53.2,74.2 95,92.4 l 1.8,-4.1 C 109.5,373.4 76.4,341.2 57.5,301 Z"
   id="path1973" />

	<path
   style="fill:#ffffff;fill-rule:evenodd"
   d="m 381.4,297.6 c -18,38.2 -49.4,68.9 -88.2,85.8 l -1.8,-4.1 c 37.8,-16.5 68.5,-46.4 86,-83.6 z"
   id="path1975" />

	<path
   style="fill:#ffffff;fill-rule:evenodd"
   d="m 65.7,297.2 c 18,38.2 49.4,68.9 88.2,85.8 l 1.8,-4.1 c -37.8,-16.5 -68.5,-46.4 -86,-83.6 z"
   id="path1977" />

	<polygon
   style="fill:#ffffff;fill-rule:evenodd"
   points="42.8,289.9 46,280.1 37.7,274 48,274 51.2,264.2 54.4,274 64.7,274 56.4,280.1 59.5,289.9 51.2,283.8 "
   id="polygon1979" />

	<polygon
   style="fill:#ffffff;fill-rule:evenodd"
   points="387.7,290.2 390.9,280.4 382.5,274.3 392.8,274.3 396,264.5 399.2,274.3 409.5,274.3 401.2,280.4 404.4,290.2 396,284.1 "
   id="polygon1981" />

	<path
   style="fill:#ffffff;fill-rule:evenodd"
   d="m 32.7,254.2 -1,-8 c -0.3,-2.5 -0.4,-4.5 -0.1,-5.8 0.2,-1.4 0.9,-2.5 2,-3.5 1.1,-1 3,-1.6 5.7,-1.9 1.8,-0.2 3.1,-0.1 3.9,0.4 0.8,0.5 1.5,1.5 2.1,3.2 0.2,-1.9 0.7,-3.3 1.6,-4 0.9,-0.8 2.4,-1.3 4.4,-1.5 l 2.9,-0.4 c 2.1,-0.3 3.7,-0.2 4.7,0.1 1.1,0.4 1.8,1 2.3,2 0.5,1 0.9,3.1 1.3,6.4 l 1.1,9.3 z m 4.3,-8.7 6.9,-0.8 c -0.1,-0.3 -0.1,-0.6 -0.1,-0.8 -0.1,-0.8 -0.4,-1.3 -0.8,-1.4 -0.4,-0.2 -1.5,-0.1 -3.4,0.1 -1,0.1 -1.6,0.3 -2,0.5 -0.4,0.2 -0.6,0.5 -0.7,0.8 0,0.2 0,0.8 0.1,1.6 z m 11.7,-1.5 8.7,-1.1 c -0.2,-1.1 -0.4,-1.8 -0.8,-2.1 -0.4,-0.3 -1.2,-0.3 -2.4,-0.2 l -2.9,0.4 c -1.3,0.2 -2.1,0.4 -2.4,0.7 -0.2,0.4 -0.3,1.2 -0.2,2.3 z m -17.4,-38.7 31.5,-1.9 -0.7,8.3 -5.6,-0.1 -0.3,2.9 5.5,1 -0.7,8.4 -30.7,-6.9 z m 19.6,6 c -3.6,0.1 -7.9,0.1 -13.1,0.1 5.9,1.3 10.2,2.2 12.9,2.7 z m -13.2,-41.6 30.2,7.5 -1.7,6.9 -14.8,0.7 13.7,3.4 -1.6,6.6 -30.2,-7.5 1.6,-6.6 14.7,-1 -13.6,-3.4 z m 25.2,-26.6 -3.4,7.3 -4.9,-2.3 c -1.4,-0.7 -2.4,-1 -2.8,-1 -0.4,0 -0.8,0.3 -1,0.8 -0.3,0.6 -0.2,1.1 0.1,1.5 0.4,0.4 1.2,0.9 2.7,1.5 l 13.1,6.1 c 1.4,0.6 2.3,1 2.8,1 0.5,0 0.9,-0.2 1.1,-0.8 0.3,-0.5 0.2,-1 -0.1,-1.4 -0.3,-0.4 -1.3,-0.9 -2.8,-1.6 l -3.5,-1.6 3.4,-7.3 1.1,0.5 c 2.9,1.4 4.9,2.5 5.9,3.5 1,1 1.7,2.4 1.9,4.2 0.3,1.8 -0.1,3.8 -1.1,5.9 -1,2.2 -2.2,3.7 -3.7,4.8 -1.4,1 -2.9,1.5 -4.5,1.3 -1.6,-0.2 -3.8,-0.9 -6.5,-2.2 l -8.2,-3.8 c -2,-0.9 -3.5,-1.7 -4.5,-2.3 -1,-0.6 -1.7,-1.5 -2.4,-2.6 -0.6,-1.1 -0.9,-2.4 -0.9,-3.9 0,-1.5 0.4,-3 1.2,-4.6 1,-2.2 2.3,-3.8 3.8,-4.8 1.5,-1 3,-1.5 4.4,-1.3 1.5,0.1 3.5,0.8 6.1,2.1 z m 19.6,-23.9 c 2.6,1.7 4.4,3 5.5,3.8 1,0.8 1.8,1.9 2.2,3.1 0.5,1.2 0.6,2.6 0.4,4 -0.2,1.4 -0.8,2.9 -1.8,4.3 -0.9,1.4 -2,2.5 -3.1,3.3 -1.2,0.8 -2.4,1.3 -3.8,1.4 -1.4,0.1 -2.6,-0.2 -3.8,-0.7 -1.2,-0.6 -3.1,-1.7 -5.8,-3.5 L 67.8,132 c -2.6,-1.7 -4.4,-3 -5.5,-3.8 -1,-0.8 -1.8,-1.9 -2.2,-3.1 -0.5,-1.2 -0.6,-2.6 -0.4,-4 0.2,-1.4 0.8,-2.9 1.8,-4.3 0.9,-1.4 2,-2.5 3.1,-3.3 1.2,-0.8 2.4,-1.3 3.8,-1.4 1.4,-0.1 2.6,0.2 3.8,0.7 1.2,0.6 3.1,1.7 5.8,3.5 z m -13,1.3 c -1.2,-0.8 -2,-1.2 -2.5,-1.3 -0.4,-0.1 -0.8,0.1 -1,0.5 -0.2,0.4 -0.3,0.7 -0.1,1.1 0.1,0.4 0.9,1 2.2,1.9 l 12.2,7.9 c 1.5,1 2.5,1.5 2.9,1.6 0.4,0.1 0.8,-0.1 1.1,-0.5 0.3,-0.5 0.3,-0.9 0,-1.3 C 84,130 83,129.3 81.5,128.3 Z m 38.1,-34.6 -5.9,5.5 -3.7,-4 c -1.1,-1.2 -1.8,-1.8 -2.2,-2 -0.4,-0.2 -0.8,-0.1 -1.2,0.4 -0.5,0.5 -0.6,0.9 -0.4,1.4 0.2,0.5 0.8,1.3 1.9,2.4 l 9.9,10.6 c 1,1.1 1.8,1.8 2.2,2 0.5,0.2 0.9,0.1 1.4,-0.3 0.4,-0.4 0.6,-0.8 0.4,-1.3 -0.2,-0.5 -0.8,-1.3 -2,-2.6 l -2.7,-2.9 5.9,-5.5 0.8,0.9 c 2.2,2.4 3.6,4.2 4.2,5.5 0.6,1.3 0.7,2.9 0.2,4.7 -0.4,1.8 -1.5,3.5 -3.2,5 -1.7,1.6 -3.5,2.6 -5.2,3.1 -1.7,0.4 -3.3,0.2 -4.7,-0.5 -1.4,-0.8 -3.1,-2.3 -5.2,-4.5 l -6.2,-6.7 c -1.5,-1.6 -2.6,-2.9 -3.3,-3.9 -0.7,-0.9 -1.1,-2 -1.2,-3.3 -0.2,-1.3 0.1,-2.6 0.6,-4 0.6,-1.4 1.5,-2.6 2.8,-3.8 1.7,-1.6 3.5,-2.6 5.3,-3 1.8,-0.4 3.3,-0.2 4.6,0.4 1.3,0.7 2.9,2.1 4.9,4.2 z m 3.5,-19.7 16.5,26.4 11.9,-7.4 -3.3,-5.3 -5,3.2 -3.6,-5.8 4.3,-2.7 -3.1,-5 -4.3,2.7 -3.1,-5 4.6,-2.9 -3.3,-5.3 z m 39.9,-21.8 12.7,28.5 -6.5,2.9 -9.6,-11.2 5.8,12.9 -6.2,2.8 -12.7,-28.5 6.2,-2.8 9.9,11 -5.7,-12.8 z m 30.2,-9.7 1.6,6 -4.6,1.2 6.5,24.1 -7.8,2.1 -6.5,-24.1 -4.6,1.2 -1.6,-6 z m 12.9,-2.3 5.7,-0.7 c 3.8,-0.5 6.4,-0.6 7.8,-0.5 1.4,0.1 2.6,0.7 3.6,1.8 1,1.1 1.7,3 2,5.6 0.3,2.4 0.2,4.1 -0.3,5 -0.5,0.9 -1.6,1.5 -3.4,1.9 1.6,0.2 2.8,0.6 3.4,1.2 0.6,0.6 1,1.2 1.2,1.7 0.2,0.5 0.5,2.1 0.8,4.6 l 1,8.2 -7.5,0.9 -1.3,-10.3 c -0.2,-1.7 -0.5,-2.7 -0.8,-3 -0.3,-0.4 -1,-0.5 -2.1,-0.3 l 1.7,14 -8,1 z m 8.7,4.3 0.8,6.9 c 0.9,-0.1 1.5,-0.3 1.9,-0.6 0.3,-0.3 0.4,-1.1 0.3,-2.5 l -0.2,-1.7 c -0.1,-1 -0.4,-1.6 -0.8,-1.9 -0.4,-0.3 -1.1,-0.3 -2,-0.2 z m 39.4,-5.6 2.5,31.4 -8.3,-0.6 v -5.6 l -2.9,-0.2 -0.9,5.6 -8.4,-0.6 6.3,-30.8 z m -5.6,19.7 c -0.2,-3.5 -0.3,-7.9 -0.3,-13.1 -1.2,5.9 -2.1,10.2 -2.4,12.9 z m 31,-15.5 -5.6,24.3 4.8,1.1 -1.4,6.1 -12.7,-2.9 7,-30.4 z m 27.8,8.7 5.5,2.5 c 3.6,1.6 5.9,2.8 7,3.7 1.1,0.9 1.8,1.9 2.2,2.9 0.3,1 0.4,2.1 0.1,3.1 -0.2,1 -1,2.8 -2.2,5.5 l -4.4,10 c -1.1,2.6 -2,4.2 -2.6,5 -0.6,0.8 -1.3,1.2 -2.2,1.5 -0.8,0.2 -1.7,0.2 -2.7,0 -1,-0.2 -2.3,-0.7 -4.1,-1.5 l -9.3,-4.2 z m 5.3,8.1 -8.3,18.7 c 1.1,0.5 1.8,0.6 2.3,0.2 0.4,-0.3 1.1,-1.4 1.9,-3.3 l 4.9,-11.1 c 0.6,-1.3 0.9,-2.1 1,-2.5 0.1,-0.4 0,-0.8 -0.2,-1 -0.3,-0.3 -0.8,-0.6 -1.6,-1 z m 24.1,6.7 -16.5,26.4 11.9,7.4 3.3,-5.3 -5,-3.2 3.6,-5.8 4.3,2.7 3.1,-5 -4.3,-2.7 3.1,-5 4.6,2.9 3.3,-5.3 z m 31.7,24.4 5.6,5.8 c 1.8,1.8 3,3.4 3.6,4.6 0.6,1.2 0.8,2.5 0.5,4 -0.3,1.4 -1.4,3.1 -3.4,4.9 -1.3,1.3 -2.4,1.9 -3.3,2 -0.9,0.1 -2.1,-0.3 -3.5,-1.3 1,1.6 1.4,3 1.1,4.2 -0.2,1.2 -1.1,2.4 -2.6,3.9 l -2.1,2 c -1.5,1.5 -2.8,2.4 -3.9,2.7 -1.1,0.4 -2.1,0.3 -3.1,-0.2 -1,-0.5 -2.6,-1.9 -4.9,-4.3 l -6.5,-6.7 z m 1.8,9.6 -5,4.8 c 0.2,0.2 0.4,0.4 0.6,0.6 0.6,0.6 1,0.8 1.5,0.7 0.4,-0.1 1.3,-0.8 2.6,-2.1 0.7,-0.7 1.1,-1.2 1.3,-1.6 0.2,-0.4 0.2,-0.7 0,-1 -0.1,-0.4 -0.5,-0.8 -1,-1.4 z m -8.5,8.2 -6.3,6.1 c 0.8,0.8 1.5,1.2 1.9,1.2 0.4,0 1.1,-0.4 2,-1.3 l 2.1,-2 c 1,-0.9 1.4,-1.6 1.4,-2 0.1,-0.5 -0.3,-1.1 -1.1,-2 z m 24.6,33.5 4.5,-2.9 c 2.7,-1.8 4.5,-3 5.5,-3.9 1,-0.8 1.7,-1.9 2.2,-3.1 0.5,-1.3 0.6,-2.6 0.3,-4 -0.3,-1.4 -0.8,-2.8 -1.8,-4.2 -1,-1.5 -2,-2.6 -3.2,-3.4 -1.2,-0.8 -2.5,-1.2 -3.8,-1.3 -1.3,-0.1 -2.6,0.2 -3.7,0.8 -1.2,0.6 -3.1,1.7 -5.7,3.4 l -4.5,2.9 c -2.7,1.7 -4.5,3 -5.5,3.9 -1,0.8 -1.7,1.9 -2.2,3.2 -0.5,1.3 -0.6,2.6 -0.3,4 0.3,1.4 0.8,2.8 1.8,4.2 1,1.5 2,2.6 3.2,3.4 1.2,0.8 2.5,1.2 3.8,1.3 1.3,0.1 2.6,-0.2 3.8,-0.8 1.1,-0.7 3,-1.8 5.6,-3.5 z m 4.2,-12.4 -12,7.8 c -1.5,1 -2.6,1.6 -3.1,1.7 -0.5,0.1 -0.9,0 -1.2,-0.5 -0.3,-0.5 -0.3,-0.9 0,-1.2 0.3,-0.4 1.2,-1 2.7,-2 l 12.2,-7.9 c 1.4,-0.9 2.2,-1.3 2.6,-1.3 0.4,0 0.7,0.2 0.9,0.5 0.3,0.4 0.3,0.8 0,1.2 -0.2,0.3 -0.9,0.9 -2.1,1.7 z m 21.4,22.6 -22.6,10.5 2.1,4.5 -5.7,2.6 -5.5,-11.8 28.2,-13.2 z m 8.9,23.5 -2.6,-7.7 -29.5,10.1 2.6,7.7 z m 7.2,32.9 -31.4,1.9 -2.3,-12.1 29.7,-10.5 1.6,8.4 c -8.2,2.6 -15.2,4.7 -21,6.2 6,-0.7 11.3,-1.3 15.9,-1.7 l 5.8,-0.6 z m 0.9,21.3 -31.1,1.1 -0.3,-8.1 31.2,-1.1 z m -2.3,29.2 -31.5,0.8 1,-8.2 5.6,0.3 0.4,-2.9 -5.5,-1.2 1,-8.3 30.4,7.9 z m -19.4,-6.7 c 3.6,0 7.9,0.1 13.1,0.4 -5.8,-1.5 -10.1,-2.6 -12.8,-3.1 z"
   id="path1983" />

	<path
   style="fill:#ffffff;fill-rule:evenodd"
   d="m 179.7,386.2 7.4,-1.6 0.7,0.2 -5.7,22.8 c -0.4,1.5 -0.6,2.5 -0.5,2.9 0,0.4 0.2,0.8 0.6,1.1 0.4,0.3 1.1,0.6 2.3,0.9 l -0.2,0.7 -10.2,-2.5 0.2,-0.7 c 1.3,0.3 2.1,0.4 2.6,0.3 0.4,-0.1 0.7,-0.3 1,-0.6 0.2,-0.3 0.5,-1.2 0.9,-2.9 l 3.6,-14.6 c 0.5,-2 0.7,-3.2 0.7,-3.8 0,-0.5 -0.1,-0.8 -0.3,-1.1 -0.2,-0.3 -0.5,-0.4 -0.8,-0.5 -0.5,-0.1 -1.2,-0.1 -2.2,0.1 z m 20.4,30.3 0.1,-0.8 c 1.8,0.1 3.5,-0.1 5.1,-0.8 1.6,-0.7 3.2,-1.9 4.8,-3.8 1.6,-1.9 2.8,-4 3.5,-6.3 -2.3,1.2 -4.3,1.7 -6,1.6 -1.9,-0.2 -3.6,-1.1 -4.8,-2.7 -1.3,-1.6 -1.8,-3.7 -1.6,-6.2 0.2,-2.4 1.1,-4.5 2.7,-6.3 1.9,-2.2 4.2,-3.1 6.9,-2.9 2.3,0.2 4.1,1.3 5.6,3.3 1.8,2.5 2.5,5.5 2.2,8.9 -0.3,3.1 -1.3,5.9 -3,8.4 -1.7,2.5 -4,4.6 -6.9,6.1 -2.3,1.3 -4.8,1.8 -7.4,1.5 z m 14,-13.2 c 0.4,-1.8 0.6,-3.2 0.7,-4.2 0.1,-1.3 0,-2.8 -0.3,-4.3 -0.3,-1.6 -0.9,-2.8 -1.6,-3.7 -0.8,-0.9 -1.7,-1.4 -2.7,-1.5 -1.2,-0.1 -2.3,0.3 -3.3,1.4 -1,1 -1.6,2.6 -1.8,4.7 -0.3,2.9 0.2,5.2 1.2,6.9 0.8,1.3 1.8,1.9 3.1,2 0.6,0.1 1.4,0 2.3,-0.3 0.9,-0.1 1.7,-0.5 2.4,-1 z m 32.6,7.1 -1.5,5.5 -16.4,1.4 -0.1,-0.8 c 4.4,-4.8 7.5,-8.7 9.2,-11.6 1.7,-3 2.5,-5.6 2.3,-7.9 -0.2,-1.8 -0.8,-3.2 -2,-4.2 -1.2,-1 -2.5,-1.5 -4,-1.4 -1.4,0.1 -2.6,0.6 -3.6,1.5 -1,0.9 -1.7,2.1 -2.1,3.7 l -0.8,0.1 c 0.1,-2.6 0.8,-4.6 2.1,-6 1.3,-1.5 3,-2.3 5.1,-2.5 2.2,-0.2 4.2,0.4 5.8,1.7 1.6,1.3 2.5,3 2.7,4.9 0.1,1.4 -0.1,2.8 -0.6,4.3 -0.8,2.3 -2.2,4.8 -4.3,7.4 -3.1,4 -5,6.4 -5.8,7.3 l 7.2,-0.6 c 1.5,-0.1 2.5,-0.3 3.1,-0.4 0.6,-0.2 1.1,-0.4 1.5,-0.8 0.4,-0.4 0.8,-0.9 1.1,-1.5 z m 15.7,-11.5 c -2.6,-1.2 -4.3,-2.3 -5.2,-3.2 -0.9,-0.9 -1.5,-1.9 -1.7,-3.1 -0.4,-1.8 -0.1,-3.4 0.9,-5 1,-1.6 2.7,-2.7 4.9,-3.2 2.2,-0.5 4.1,-0.4 5.7,0.5 1.6,0.9 2.6,2 3,3.5 0.2,1 0.2,2.1 -0.3,3.4 -0.5,1.2 -1.6,2.8 -3.6,4.8 2.8,1.2 4.7,2.3 5.7,3.1 1.3,1.1 2.2,2.4 2.6,3.9 0.5,1.9 0.2,3.7 -1,5.4 -1.1,1.7 -2.8,2.9 -5.2,3.4 -2.6,0.6 -4.8,0.3 -6.6,-0.9 -1.5,-1 -2.4,-2.3 -2.8,-3.8 -0.3,-1.2 -0.2,-2.5 0.3,-3.9 0.6,-1.3 1.6,-3 3.3,-4.9 z M 265,396 c 1.2,-1.8 2,-3.2 2.2,-4.2 0.2,-0.9 0.2,-1.9 -0.1,-3 -0.3,-1.4 -1,-2.4 -2,-3 -1,-0.6 -2.2,-0.7 -3.5,-0.4 -1.4,0.3 -2.4,1 -3,2 -0.7,1 -0.9,2 -0.6,3.1 0.2,0.7 0.5,1.3 1,1.9 0.5,0.6 1.2,1.1 2,1.6 z m -1.5,3.4 c -0.9,1.2 -1.4,2.4 -1.7,3.7 -0.3,1.2 -0.2,2.5 0.1,3.8 0.4,1.7 1.2,3 2.4,3.8 1.2,0.8 2.5,1 4,0.7 1.4,-0.4 2.5,-1 3.1,-2.1 0.7,-1 0.8,-2.1 0.6,-3.3 -0.2,-1 -0.7,-1.8 -1.4,-2.4 -1.3,-1.2 -3.7,-2.6 -7.1,-4.2 z"
   id="path1985" />

</g>
  </g>
</svg>
