<?xml version="1.0" encoding="UTF-8" standalone="no"?>
<!-- Created with Inkscape (http://www.inkscape.org/) -->

<svg
   xmlns:dc="http://purl.org/dc/elements/1.1/"
   xmlns:cc="http://creativecommons.org/ns#"
   xmlns:rdf="http://www.w3.org/1999/02/22-rdf-syntax-ns#"
   xmlns:svg="http://www.w3.org/2000/svg"
   xmlns="http://www.w3.org/2000/svg"
   xmlns:sodipodi="http://sodipodi.sourceforge.net/DTD/sodipodi-0.dtd"
   xmlns:inkscape="http://www.inkscape.org/namespaces/inkscape"
   width="101.6mm"
   height="101.6mm"
   viewBox="0 0 101.6 101.6"
   version="1.1"
   id="svg8"
   sodipodi:docname="vk.svg"
   inkscape:version="0.92.4 (unknown)">
  <defs
     id="defs2" />
  <sodipodi:namedview
     id="base"
     pagecolor="#ffffff"
     bordercolor="#666666"
     borderopacity="1.0"
     inkscape:pageopacity="0.0"
     inkscape:pageshadow="2"
     inkscape:zoom="0.98994949"
     inkscape:cx="71.353025"
     inkscape:cy="110.64155"
     inkscape:document-units="mm"
     inkscape:current-layer="layer1"
     showgrid="false"
     inkscape:window-width="1366"
     inkscape:window-height="744"
     inkscape:window-x="0"
     inkscape:window-y="0"
     inkscape:window-maximized="1" />
  <metadata
     id="metadata5">
    <rdf:RDF>
      <cc:Work
         rdf:about="">
        <dc:format>image/svg+xml</dc:format>
        <dc:type
           rdf:resource="http://purl.org/dc/dcmitype/StillImage" />
        <dc:title></dc:title>
      </cc:Work>
    </rdf:RDF>
  </metadata>
  <g
     inkscape:label="Layer 1"
     inkscape:groupmode="layer"
     id="layer1"
     transform="translate(-234.64762,18.836905)">
    <g
       id="g819"
       transform="matrix(0.26458333,0,0,0.26458333,260.04762,6.5630946)"
       style="fill:none;fill-rule:evenodd">
      <path
         id="path815"
         d="m 66.56,0 h 58.88 C 179.2,0 192,12.8 192,66.56 v 58.88 C 192,179.2 179.2,192 125.44,192 H 66.56 C 12.8,192 0,179.2 0,125.44 V 66.56 C 0,12.8 12.8,0 66.56,0 Z"
         inkscape:connector-curvature="0"
         style="fill:#5181b8" />
      <path
         id="path817"
         d="M 157.234,66.14622 C 158.12356,63.17977 157.234,61 153.00024,61 h -14 c -3.55973,0 -5.20082,1.883 -6.09088,3.9594 0,0 -7.11948,17.35354 -17.20516,28.6258 -3.26297,3.26297 -4.74632,4.30116 -6.5262,4.30116 -0.8898,0 -2.178,-1.0382 -2.178,-4.0044 V 66.14623 C 107,62.58648 105.96694,61 103.00024,61 h -22 c -2.22452,0 -3.56237,1.65216 -3.56237,3.21797 0,3.37456 5.04259,4.15278 5.56237,13.64542 V 98.4799 c 0,4.5201 -0.8163,5.3396 -2.59617,5.3396 -4.74607,0 -16.2909,-17.43106 -23.13806,-37.37676 C 55.92414,62.566 54.57825,61 51.00024,61 h -14 c -4,0 -4.80004,1.883 -4.80004,3.9594 0,3.70812 4.74631,22.09986 22.09961,46.42425 C 65.86859,127.99527 82.16824,137 97.00024,137 c 8.8991,0 10,-2 10,-5.445 V 119 c 0,-4 0.84305,-4.79829 3.66112,-4.79829 2.07639,0 5.63613,1.0382 13.94218,9.04749 9.4924,9.49239 11.05734,13.7508 16.3967,13.7508 h 14 c 4,0 6,-2 4.84624,-5.94689 -1.26257,-3.9337 -5.79468,-9.64097 -11.80836,-16.4065 -3.26321,-3.85625 -8.15767,-8.00904 -9.64102,-10.08592 -2.07639,-2.66943 -1.4831,-3.85626 0,-6.22917 0,0 17.05702,-24.02787 18.8369,-32.1853 z"
         inkscape:connector-curvature="0"
         style="fill:#ffffff" />
    </g>
  </g>
</svg>
